<svg xmlns="http://www.w3.org/2000/svg" viewBox="0 0 64 64" width="64" height="64">
  <rect x="8" y="20" width="48" height="32" rx="4" ry="4" fill="#444" />
  <rect x="10" y="22" width="44" height="28" rx="2" ry="2" fill="#fff" />
  <circle cx="32" cy="36" r="10" fill="#f8c102" />
  <rect x="28" y="32" width="8" height="12" fill="#444" />
  <rect x="14" y="12" width="36" height="8" fill="#f8c102" />
  <path d="M10 52h44v2a2 2 0 0 1-2 2H12a2 2 0 0 1-2-2v-2z" fill="#f8c102" />
  <g transform="translate(16, 10)">
    <path d="M6 0h4v6H6zM12 0h4v6h-4zM18 0h4v6h-4z" fill="#444" />
  </g>
  <g transform="translate(40, 10)">
    <path d="M6 0h4v6H6zM12 0h4v6h-4zM18 0h4v6h-4z" fill="#444" />
  </g>
  <g transform="translate(22, 0)">
    <circle cx="10" cy="10" r="4" fill="#f8c102" />
    <circle cx="0" cy="10" r="4" fill="#f8c102" />
  </g>
  <text x="50%" y="62%" text-anchor="middle" font-size="8" fill="#444" font-family="Arial, sans-serif">Cinerater</text>
</svg>
